<svg id="Layer_1" data-name="Layer 1" xmlns="http://www.w3.org/2000/svg" viewBox="0 0 396 95.89">
  <defs>
    <style>
      .cls-1, .cls-2 {
        fill: #ffffff;
      }

      .cls-2 {
        fill-rule: evenodd;
      }

      .cls-3 {
        fill: #ffffff;
      }
    </style>
  </defs>
  <title>Centene Logo</title>
  <g>
    <polygon class="cls-1" points="57.24 56.2 57.24 2.9 99.42 2.9 99.42 14.82 73.87 14.82 73.87 23.19 95.56 23.19 95.56 35.11 73.87 35.11 73.87 43.81 99.42 43.81 99.42 56.2 57.24 56.2"/>
    <polygon class="cls-1" points="134.7 56.2 118.26 27.96 118.26 56.2 102.58 56.2 102.58 2.81 118.26 2.81 136.29 31.18 136.29 2.81 152.5 2.81 152.5 56.2 134.7 56.2"/>
    <path class="cls-1" d="M351.61,12.42V4.93h3.32a4.42,4.42,0,0,1,1.52.2,1.67,1.67,0,0,1,.83.71A2.15,2.15,0,0,1,357.6,7a1.88,1.88,0,0,1-.52,1.34,2.6,2.6,0,0,1-1.59.7,2.57,2.57,0,0,1,.6.37,5.13,5.13,0,0,1,.82,1l1.3,2H357l-1-1.56q-0.44-.67-0.72-1a2.28,2.28,0,0,0-.5-0.5,1.5,1.5,0,0,0-.45-0.2,3,3,0,0,0-.55,0H352.6v3.32h-1Zm1-4.18h2.13a3.2,3.2,0,0,0,1.06-.14,1.13,1.13,0,0,0,.58-0.45,1.21,1.21,0,0,0,.2-0.67,1.12,1.12,0,0,0-.38-0.87A1.82,1.82,0,0,0,355,5.76H352.6V8.24Z" transform="translate(-0.31 -0.3)"/>
    <path class="cls-1" d="M354.56,15a6.18,6.18,0,1,1,6.18-6.18A6.19,6.19,0,0,1,354.56,15Zm0-11.33a5.15,5.15,0,1,0,5.15,5.15A5.16,5.16,0,0,0,354.56,3.68Z" transform="translate(-0.31 -0.3)"/>
    <polygon class="cls-1" points="281.63 56.2 265.19 27.96 265.19 56.2 249.52 56.2 249.51 2.81 265.19 2.81 283.23 31.18 283.23 2.81 299.43 2.81 299.43 56.2 281.63 56.2"/>
    <polygon class="cls-1" points="204.63 56.2 204.63 2.9 246.81 2.9 246.81 14.82 221.26 14.82 221.26 23.19 242.95 23.19 242.95 35.11 221.26 35.11 221.26 43.81 246.81 43.81 246.81 56.2 204.63 56.2"/>
    <path class="cls-2" d="M54.64,23.64C53.2,9.7,43.94.3,27.36,0.3c-15.14,0-27,10.92-27,28.48S11.16,57.41,29.09,57.41C43.41,57.41,53.43,49,55,35H37.91c-0.68,5.2-3.39,9.19-9.12,9.19-9,0-10.7-7.16-10.7-14.77,0-10.47,3.77-15.82,10-15.82,5.58,0,9.12,4.42,9.64,10.07H54.64Z" transform="translate(-0.31 -0.3)"/>
    <path class="cls-1" d="M202.68,3.08H155.33V16.56h15V70h0a18.68,18.68,0,0,1,4.82-9.27,16,16,0,0,1,12.47-5.37h0.11V16.56l14.93,0Z" transform="translate(-0.31 -0.3)"/>
    <path class="cls-1" d="M186.94,57.63c-6.37,0-11.74,5.34-13,12.38h13.86V57.69h-0.08C187.44,57.66,187.2,57.63,186.94,57.63Z" transform="translate(-0.31 -0.3)"/>
    <path class="cls-1" d="M344.8,56.5H302.62V3.2H344.8V15.12H319.26V23.5h21.69V35.41H319.26v8.7H344.8S344.8,55.64,344.8,56.5Z" transform="translate(-0.31 -0.3)"/>
  </g>
  <g>
    <path class="cls-3" d="M216.36,74c0,6.91-5.19,12.75-11.32,12.75-5.24,0-8.77-3.85-8.77-9.64,0-7.19,5.11-12.61,11.92-12.61C212.87,64.49,216.36,68.52,216.36,74Zm-17,3.62c0,4.17,2.34,6.91,5.92,6.91,4.51,0,8-4.73,8-10.89,0-4.22-2.13-6.91-5.49-6.91C203,66.71,199.37,71.39,199.37,77.61Z" transform="translate(-0.31 -0.3)"/>
    <path class="cls-3" d="M234.45,69h-0.77a2.1,2.1,0,0,0-2.26-2,4.31,4.31,0,0,0-2.64,1,5.67,5.67,0,0,0-1.49,1.58c-0.64,1-.85,1.58-1.32,4l-2.51,12.79h-3.19L223.68,69l0.21-.88a4.66,4.66,0,0,0,.09-0.79c0-1-.39-1.3-1.53-1.3h-0.3l0.21-.93,5.41-.6L226.87,69c1.36-2.83,3.66-4.5,6.17-4.5a5.64,5.64,0,0,1,2.47.6Z" transform="translate(-0.31 -0.3)"/>
    <path class="cls-3" d="M238.16,92.91a11.78,11.78,0,0,0-.21,1.25c0,0.79.17,0.93,1.4,1.3l-0.17.74H232.7l0.13-.74a2.34,2.34,0,0,0,.89-0.23c0.68-.32.89-0.65,1.11-1.76L239.6,69l0.17-.88a2.62,2.62,0,0,0,.09-0.79c0-1-.34-1.3-1.49-1.3h-0.3l0.17-.93,5.45-.6L243,67.87a9.65,9.65,0,0,1,1.53-1.58,9.42,9.42,0,0,1,5.41-1.81c4.3,0,7.41,3.43,7.41,8.21,0,8.11-6.52,14-15.54,14a15,15,0,0,1-2.43-.19Zm2-8.44c0.64,0,1.19,0,1.66,0,7.49,0,12.13-4.4,12.13-11.45,0-3.94-2-6.35-5.28-6.35-2.25,0-4.3,1.25-6.13,3.66l-2.77,14.09h0.38Z" transform="translate(-0.31 -0.3)"/>
    <path class="cls-3" d="M281.07,74c0,6.91-5.2,12.75-11.33,12.75-5.24,0-8.77-3.85-8.77-9.64,0-7.19,5.11-12.61,11.92-12.61C277.58,64.49,281.07,68.52,281.07,74Zm-17,3.62c0,4.17,2.34,6.91,5.92,6.91,4.51,0,8-4.73,8-10.89,0-4.22-2.13-6.91-5.49-6.91C267.7,66.71,264.08,71.39,264.08,77.61Z" transform="translate(-0.31 -0.3)"/>
    <path class="cls-3" d="M299.16,69H298.4a2.1,2.1,0,0,0-2.26-2,4.32,4.32,0,0,0-2.64,1A5.64,5.64,0,0,0,292,69.59c-0.64,1-.85,1.58-1.32,4l-2.51,12.79H285L288.39,69l0.21-.88a5,5,0,0,0,.08-0.79c0-1-.38-1.3-1.53-1.3h-0.3l0.21-.93,5.41-.6L291.59,69c1.36-2.83,3.66-4.5,6.17-4.5a5.64,5.64,0,0,1,2.47.6Z" transform="translate(-0.31 -0.3)"/>
    <path class="cls-3" d="M304.39,66.2a15.86,15.86,0,0,1,7.49-1.72c4.39,0,6.81,1.58,6.81,4.45a9.23,9.23,0,0,1-.21,1.76l-2,10.43a9.58,9.58,0,0,0-.25,1.76,1.47,1.47,0,0,0,1.36,1.67c0.64,0,1.11-.23,2.26-1.16l0.73,0.79c-1.62,1.67-3.11,2.55-4.47,2.55-2,0-3.15-1.35-3.23-3.66a10.06,10.06,0,0,1-7.79,3.66c-3.28,0-5.62-2.18-5.62-5.19,0-5.61,6-9.55,15.71-10.2a6.4,6.4,0,0,0,.21-1.62c0-1.9-1.79-3.11-4.68-3.11a8.18,8.18,0,0,0-3.19.6,6.36,6.36,0,0,0-3.11,2.46h-0.77ZM310.57,74c-4.94,1.25-7.75,3.75-7.75,6.91a3.26,3.26,0,0,0,3.41,3.2,9.5,9.5,0,0,0,7.2-3.71l1.36-7.09A39.23,39.23,0,0,0,310.57,74Z" transform="translate(-0.31 -0.3)"/>
    <path class="cls-3" d="M331.85,64.81h4.3l-0.3,1.53h-4.3L328.87,80a14,14,0,0,0-.3,2.6,1.91,1.91,0,0,0,2.08,2,3.5,3.5,0,0,0,3.45-2.18h0.68L334.11,86a10.58,10.58,0,0,1-4.21.79c-3.11,0-4.6-1.25-4.6-3.76a13.49,13.49,0,0,1,.34-2.74l2.73-13.91h-2.51l0.3-1.53a3.83,3.83,0,0,0,1.92-.33c0.72-.32,1.23-1.3,1.58-3l0.59-3,3-.79Z" transform="translate(-0.31 -0.3)"/>
    <path class="cls-3" d="M370.26,74c0,6.91-5.2,12.75-11.33,12.75-5.24,0-8.77-3.85-8.77-9.64,0-7.19,5.11-12.61,11.92-12.61C366.76,64.49,370.26,68.52,370.26,74Zm-17,3.62c0,4.17,2.34,6.91,5.92,6.91,4.51,0,8-4.73,8-10.89,0-4.22-2.13-6.91-5.49-6.91C356.89,66.71,353.27,71.39,353.27,77.61Z" transform="translate(-0.31 -0.3)"/>
    <path class="cls-3" d="M381,67.69a10.85,10.85,0,0,1,7.58-3.2c3.49,0,5.83,2,5.83,5a20.88,20.88,0,0,1-.51,3.38l-1.45,7.46a17.51,17.51,0,0,0-.43,2.78,1.39,1.39,0,0,0,1.4,1.39,3.6,3.6,0,0,0,2.26-1.11l0.64,0.83a6.9,6.9,0,0,1-1.41,1.35,6.28,6.28,0,0,1-3.36,1.16,2.81,2.81,0,0,1-2.81-3.06,13.76,13.76,0,0,1,.3-2.23l1.74-9a12.89,12.89,0,0,0,.3-2.36,3.58,3.58,0,0,0-3.88-3.48,7.38,7.38,0,0,0-4.34,1.72,13.86,13.86,0,0,0-2.51,2.55l-3,15.53h-3.24L377.54,69l0.17-.88a4.77,4.77,0,0,0,.09-0.79c0-1-.38-1.3-1.49-1.3H376l0.17-.93,5.45-.6Z" transform="translate(-0.31 -0.3)"/>
    <path class="cls-3" d="M342.8,80l-0.34,1.67a3.62,3.62,0,0,0-.08.93c0,1.21.51,1.95,1.36,1.95a4.07,4.07,0,0,0,2.21-1.11l0.55,0.7a6.78,6.78,0,0,1-4.6,2.6c-1.7,0-2.85-1.3-2.85-3.29a12.84,12.84,0,0,1,.42-2.87L341.73,69l0.17-.88a2.59,2.59,0,0,0,.09-0.79c0-1-.34-1.3-1.49-1.3h-0.3l0.17-.93,5.45-.6Z" transform="translate(-0.31 -0.3)"/>
    <path class="cls-3" d="M185.32,85.22c-6.85,0-11.71-5-11.71-12a18.1,18.1,0,0,1,.3-3.25h0c1.29-7,6.66-12.38,13-12.38,0.26,0,.51,0,0.75,0h0.08c3,0.28,5,1.83,5,4a1.77,1.77,0,0,1-.6,1.39l0.6,0.65L196.53,60c-2-3.21-4.71-4.6-8.77-4.63h-0.11a16,16,0,0,0-12.47,5.37A18.68,18.68,0,0,0,170.36,70h0A17.9,17.9,0,0,0,170,73.4c0,4.68,1.75,8.58,5,11.13,2.6,2.09,5.62,3,10,3a16.2,16.2,0,0,0,7.11-1.3L193,81.88h-0.85C191.15,84.06,188.81,85.22,185.32,85.22Z" transform="translate(-0.31 -0.3)"/>
    <path class="cls-3" d="M347,56.35a3.24,3.24,0,0,1-3,3.2,2,2,0,0,1-2-2.09,3.28,3.28,0,0,1,3-3.2A1.92,1.92,0,0,1,347,56.35Z" transform="translate(-0.31 -0.3)"/>
  </g>
</svg>
